<mxfile host="app.diagrams.net" agent="Mozilla/5.0 (Windows NT 10.0; Win64; x64) AppleWebKit/537.36 (KHTML, like Gecko) Chrome/135.0.0.0 Safari/537.36" version="26.2.14">
  <diagram name="Page-1" id="YF5ydmSL-cVZFY-GKMBw">
    <mxGraphModel dx="1042" dy="527" grid="1" gridSize="10" guides="1" tooltips="1" connect="1" arrows="1" fold="1" page="1" pageScale="1" pageWidth="850" pageHeight="1100" math="0" shadow="0">
      <root>
        <mxCell id="0" />
        <mxCell id="1" parent="0" />
        <mxCell id="7lWMOuB3oh7grwtQyAh1-8" style="edgeStyle=orthogonalEdgeStyle;rounded=0;orthogonalLoop=1;jettySize=auto;html=1;exitX=0.022;exitY=0.376;exitDx=0;exitDy=0;entryX=1.023;entryY=0.336;entryDx=0;entryDy=0;exitPerimeter=0;entryPerimeter=0;" edge="1" parent="1">
          <mxGeometry relative="1" as="geometry">
            <mxPoint x="345.76" y="269.73" as="sourcePoint" />
            <mxPoint x="180" y="269.73" as="targetPoint" />
          </mxGeometry>
        </mxCell>
        <mxCell id="7lWMOuB3oh7grwtQyAh1-9" value="Konfirmasi pendaftaran" style="edgeLabel;html=1;align=center;verticalAlign=middle;resizable=0;points=[];" vertex="1" connectable="0" parent="7lWMOuB3oh7grwtQyAh1-8">
          <mxGeometry x="0.2152" relative="1" as="geometry">
            <mxPoint x="23" as="offset" />
          </mxGeometry>
        </mxCell>
        <mxCell id="7lWMOuB3oh7grwtQyAh1-20" style="edgeStyle=orthogonalEdgeStyle;rounded=0;orthogonalLoop=1;jettySize=auto;html=1;entryX=0;entryY=0.5;entryDx=0;entryDy=0;" edge="1" parent="1" source="7lWMOuB3oh7grwtQyAh1-1" target="7lWMOuB3oh7grwtQyAh1-3">
          <mxGeometry relative="1" as="geometry" />
        </mxCell>
        <mxCell id="7lWMOuB3oh7grwtQyAh1-21" value="Detail data Pasien" style="edgeLabel;html=1;align=center;verticalAlign=middle;resizable=0;points=[];" vertex="1" connectable="0" parent="7lWMOuB3oh7grwtQyAh1-20">
          <mxGeometry x="-0.1688" relative="1" as="geometry">
            <mxPoint x="16" as="offset" />
          </mxGeometry>
        </mxCell>
        <mxCell id="7lWMOuB3oh7grwtQyAh1-1" value="Sistem KlinikGo" style="ellipse;whiteSpace=wrap;html=1;aspect=fixed;" vertex="1" parent="1">
          <mxGeometry x="345" y="190" width="160" height="160" as="geometry" />
        </mxCell>
        <mxCell id="7lWMOuB3oh7grwtQyAh1-25" style="edgeStyle=orthogonalEdgeStyle;rounded=0;orthogonalLoop=1;jettySize=auto;html=1;entryX=0.5;entryY=1;entryDx=0;entryDy=0;" edge="1" parent="1" source="7lWMOuB3oh7grwtQyAh1-2" target="7lWMOuB3oh7grwtQyAh1-23">
          <mxGeometry relative="1" as="geometry" />
        </mxCell>
        <mxCell id="7lWMOuB3oh7grwtQyAh1-26" value="Data pendaftaran ulang pasien" style="edgeLabel;html=1;align=center;verticalAlign=middle;resizable=0;points=[];" vertex="1" connectable="0" parent="7lWMOuB3oh7grwtQyAh1-25">
          <mxGeometry x="0.08" relative="1" as="geometry">
            <mxPoint as="offset" />
          </mxGeometry>
        </mxCell>
        <mxCell id="7lWMOuB3oh7grwtQyAh1-27" style="edgeStyle=orthogonalEdgeStyle;rounded=0;orthogonalLoop=1;jettySize=auto;html=1;exitX=0.5;exitY=1;exitDx=0;exitDy=0;entryX=0.5;entryY=0;entryDx=0;entryDy=0;" edge="1" parent="1" source="7lWMOuB3oh7grwtQyAh1-2" target="7lWMOuB3oh7grwtQyAh1-24">
          <mxGeometry relative="1" as="geometry" />
        </mxCell>
        <mxCell id="7lWMOuB3oh7grwtQyAh1-28" value="Data pendaftaran ulang pasien" style="edgeLabel;html=1;align=center;verticalAlign=middle;resizable=0;points=[];" vertex="1" connectable="0" parent="7lWMOuB3oh7grwtQyAh1-27">
          <mxGeometry x="-0.04" y="1" relative="1" as="geometry">
            <mxPoint x="-1" y="22" as="offset" />
          </mxGeometry>
        </mxCell>
        <mxCell id="7lWMOuB3oh7grwtQyAh1-2" value="Pasien" style="rounded=0;whiteSpace=wrap;html=1;" vertex="1" parent="1">
          <mxGeometry x="60" y="240" width="120" height="60" as="geometry" />
        </mxCell>
        <mxCell id="7lWMOuB3oh7grwtQyAh1-15" style="edgeStyle=orthogonalEdgeStyle;rounded=0;orthogonalLoop=1;jettySize=auto;html=1;entryX=1;entryY=0.5;entryDx=0;entryDy=0;" edge="1" parent="1">
          <mxGeometry relative="1" as="geometry">
            <mxPoint x="670" y="290" as="sourcePoint" />
            <mxPoint x="505.0000000000007" y="290" as="targetPoint" />
          </mxGeometry>
        </mxCell>
        <mxCell id="7lWMOuB3oh7grwtQyAh1-16" value="Data dan jadwal Dokter" style="edgeLabel;html=1;align=center;verticalAlign=middle;resizable=0;points=[];" vertex="1" connectable="0" parent="7lWMOuB3oh7grwtQyAh1-15">
          <mxGeometry x="0.2687" relative="1" as="geometry">
            <mxPoint x="25" y="10" as="offset" />
          </mxGeometry>
        </mxCell>
        <mxCell id="7lWMOuB3oh7grwtQyAh1-3" value="Dokter" style="rounded=0;whiteSpace=wrap;html=1;" vertex="1" parent="1">
          <mxGeometry x="670" y="240" width="120" height="60" as="geometry" />
        </mxCell>
        <mxCell id="7lWMOuB3oh7grwtQyAh1-4" style="edgeStyle=orthogonalEdgeStyle;rounded=0;orthogonalLoop=1;jettySize=auto;html=1;entryX=0.016;entryY=0.376;entryDx=0;entryDy=0;entryPerimeter=0;" edge="1" parent="1" target="7lWMOuB3oh7grwtQyAh1-1">
          <mxGeometry relative="1" as="geometry">
            <mxPoint x="180" y="250.24" as="sourcePoint" />
            <mxPoint x="340" y="250" as="targetPoint" />
          </mxGeometry>
        </mxCell>
        <mxCell id="7lWMOuB3oh7grwtQyAh1-5" value="Data pendaftaran pasien" style="edgeLabel;html=1;align=center;verticalAlign=middle;resizable=0;points=[];" vertex="1" connectable="0" parent="7lWMOuB3oh7grwtQyAh1-4">
          <mxGeometry x="-0.0155" y="-2" relative="1" as="geometry">
            <mxPoint x="-1" y="-17" as="offset" />
          </mxGeometry>
        </mxCell>
        <mxCell id="7lWMOuB3oh7grwtQyAh1-13" style="edgeStyle=orthogonalEdgeStyle;rounded=0;orthogonalLoop=1;jettySize=auto;html=1;entryX=1.008;entryY=0.831;entryDx=0;entryDy=0;entryPerimeter=0;exitX=0.019;exitY=0.623;exitDx=0;exitDy=0;exitPerimeter=0;" edge="1" parent="1" source="7lWMOuB3oh7grwtQyAh1-1" target="7lWMOuB3oh7grwtQyAh1-2">
          <mxGeometry relative="1" as="geometry">
            <mxPoint x="345" y="290.14" as="sourcePoint" />
            <mxPoint x="199.99999999999997" y="290" as="targetPoint" />
          </mxGeometry>
        </mxCell>
        <mxCell id="7lWMOuB3oh7grwtQyAh1-14" value="Data dan jadwal Dokter" style="edgeLabel;html=1;align=center;verticalAlign=middle;resizable=0;points=[];" vertex="1" connectable="0" parent="7lWMOuB3oh7grwtQyAh1-13">
          <mxGeometry x="0.0913" y="-1" relative="1" as="geometry">
            <mxPoint x="12" y="11" as="offset" />
          </mxGeometry>
        </mxCell>
        <mxCell id="7lWMOuB3oh7grwtQyAh1-19" style="edgeStyle=orthogonalEdgeStyle;rounded=0;orthogonalLoop=1;jettySize=auto;html=1;entryX=-0.011;entryY=0.183;entryDx=0;entryDy=0;entryPerimeter=0;exitX=0.993;exitY=0.374;exitDx=0;exitDy=0;exitPerimeter=0;" edge="1" parent="1" source="7lWMOuB3oh7grwtQyAh1-1">
          <mxGeometry relative="1" as="geometry">
            <mxPoint x="509.08" y="250" as="sourcePoint" />
            <mxPoint x="669.9999999999999" y="249.99999999999997" as="targetPoint" />
            <Array as="points">
              <mxPoint x="506" y="250" />
            </Array>
          </mxGeometry>
        </mxCell>
        <mxCell id="7lWMOuB3oh7grwtQyAh1-22" value="Detail pendaftaran" style="edgeLabel;html=1;align=center;verticalAlign=middle;resizable=0;points=[];" vertex="1" connectable="0" parent="7lWMOuB3oh7grwtQyAh1-19">
          <mxGeometry x="-0.0922" y="1" relative="1" as="geometry">
            <mxPoint x="10" y="-9" as="offset" />
          </mxGeometry>
        </mxCell>
        <mxCell id="7lWMOuB3oh7grwtQyAh1-29" style="edgeStyle=orthogonalEdgeStyle;rounded=0;orthogonalLoop=1;jettySize=auto;html=1;entryX=0.5;entryY=0;entryDx=0;entryDy=0;" edge="1" parent="1" source="7lWMOuB3oh7grwtQyAh1-23" target="7lWMOuB3oh7grwtQyAh1-1">
          <mxGeometry relative="1" as="geometry" />
        </mxCell>
        <mxCell id="7lWMOuB3oh7grwtQyAh1-31" value="Data pendaftaran ulang pasien" style="edgeLabel;html=1;align=center;verticalAlign=middle;resizable=0;points=[];" vertex="1" connectable="0" parent="7lWMOuB3oh7grwtQyAh1-29">
          <mxGeometry x="-0.2788" y="-2" relative="1" as="geometry">
            <mxPoint y="-12" as="offset" />
          </mxGeometry>
        </mxCell>
        <mxCell id="7lWMOuB3oh7grwtQyAh1-23" value="Mesin APM" style="rounded=0;whiteSpace=wrap;html=1;" vertex="1" parent="1">
          <mxGeometry x="60" y="80" width="120" height="60" as="geometry" />
        </mxCell>
        <mxCell id="7lWMOuB3oh7grwtQyAh1-30" style="edgeStyle=orthogonalEdgeStyle;rounded=0;orthogonalLoop=1;jettySize=auto;html=1;entryX=0.5;entryY=1;entryDx=0;entryDy=0;" edge="1" parent="1" source="7lWMOuB3oh7grwtQyAh1-24" target="7lWMOuB3oh7grwtQyAh1-1">
          <mxGeometry relative="1" as="geometry" />
        </mxCell>
        <mxCell id="7lWMOuB3oh7grwtQyAh1-32" value="Data pendaftaran ulang pasien" style="edgeLabel;html=1;align=center;verticalAlign=middle;resizable=0;points=[];" vertex="1" connectable="0" parent="7lWMOuB3oh7grwtQyAh1-30">
          <mxGeometry x="-0.3157" y="-4" relative="1" as="geometry">
            <mxPoint y="6" as="offset" />
          </mxGeometry>
        </mxCell>
        <mxCell id="7lWMOuB3oh7grwtQyAh1-24" value="Loket Registrasi Ulang pendaftaran online" style="rounded=0;whiteSpace=wrap;html=1;" vertex="1" parent="1">
          <mxGeometry x="60" y="400" width="120" height="60" as="geometry" />
        </mxCell>
        <mxCell id="7lWMOuB3oh7grwtQyAh1-35" style="edgeStyle=orthogonalEdgeStyle;rounded=0;orthogonalLoop=1;jettySize=auto;html=1;exitX=0;exitY=1;exitDx=0;exitDy=0;entryX=0.67;entryY=1.007;entryDx=0;entryDy=0;entryPerimeter=0;" edge="1" parent="1" source="7lWMOuB3oh7grwtQyAh1-1" target="7lWMOuB3oh7grwtQyAh1-2">
          <mxGeometry relative="1" as="geometry">
            <Array as="points">
              <mxPoint x="368" y="340" />
              <mxPoint x="140" y="340" />
            </Array>
          </mxGeometry>
        </mxCell>
        <mxCell id="7lWMOuB3oh7grwtQyAh1-36" value="Nomor Antrian" style="edgeLabel;html=1;align=center;verticalAlign=middle;resizable=0;points=[];" vertex="1" connectable="0" parent="7lWMOuB3oh7grwtQyAh1-35">
          <mxGeometry x="-0.0205" relative="1" as="geometry">
            <mxPoint as="offset" />
          </mxGeometry>
        </mxCell>
      </root>
    </mxGraphModel>
  </diagram>
</mxfile>
